<svg width="361" height="361" viewBox="0 0 361 361" fill="none" xmlns="http://www.w3.org/2000/svg">
<path d="M246.923 247.273V60.603C246.923 49.905 241.035 44.001 230.364 44.001H193.931C183.259 44.001 177.37 49.905 177.37 60.603V149.254C177.37 151.751 201.366 163.343 201.993 165.795C220.275 237.405 205.965 294.715 188.634 297.395C216.971 298.8 220.089 312.459 198.982 303.126C202.211 264.917 214.81 264.992 251.031 301.72C251.341 302.037 258.458 317.002 258.901 317.002H344.446C355.118 317.002 361.005 311.102 361.005 300.402V263.878C361.005 253.18 355.118 247.276 344.446 247.276L246.923 247.273Z" fill="#02A9FF"/>
<path d="M95.6825 44.003L0.00149536 317.003H74.3395L90.5315 269.781H171.491L187.318 317.003H261.285L165.971 44.003H95.6825ZM107.458 209.283L130.642 133.654L156.034 209.283H107.458Z" fill="#FEFEFE"/>
</svg>
